<?xml version="1.0" encoding="UTF-8"?>
<!DOCTYPE svg PUBLIC "-//W3C//DTD SVG 1.1//EN" "http://www.w3.org/Graphics/SVG/1.1/DTD/svg11.dtd">
<svg xmlns="http://www.w3.org/2000/svg" version="1.1" width="384px" height="230px" style="shape-rendering:geometricPrecision; text-rendering:geometricPrecision; image-rendering:optimizeQuality; fill-rule:evenodd; clip-rule:evenodd" xmlns:xlink="http://www.w3.org/1999/xlink">
<g><path style="opacity:1" fill="#680401" d="M 310.5,33.5 C 309.949,36.2668 308.616,38.6001 306.5,40.5C 307.5,40.5 308.5,40.5 309.5,40.5C 308.167,41.6199 307.667,42.9532 308,44.5C 309.764,42.6107 311.264,40.6107 312.5,38.5C 313.376,38.3691 314.043,38.7025 314.5,39.5C 313.544,41.0754 312.877,42.742 312.5,44.5C 308.228,50.1098 303.562,55.4431 298.5,60.5C 299.167,60.8333 299.833,61.1667 300.5,61.5C 300.141,64.7368 298.474,66.9035 295.5,68C 292.934,71.3278 290.601,74.1612 288.5,76.5C 286.678,78.0101 284.678,79.3434 282.5,80.5C 281.29,80.0679 280.29,79.4013 279.5,78.5C 282.05,76.9228 284.05,74.9228 285.5,72.5C 288.565,70.7358 291.898,68.2358 295.5,65C 293.583,65.0275 291.916,65.8608 290.5,67.5C 289.833,66.5 289.167,65.5 288.5,64.5C 285.603,67.0691 282.27,68.7357 278.5,69.5C 281.152,65.5181 284.152,61.8514 287.5,58.5C 289.167,57.5 290.5,56.1667 291.5,54.5C 291.5,53.8333 291.5,53.1667 291.5,52.5C 292.338,52.1583 292.672,51.4916 292.5,50.5C 297.967,44.8625 303.301,39.0292 308.5,33C 309.437,32.3083 310.103,32.475 310.5,33.5 Z"/></g>
<g><path style="opacity:0.039" fill="#190000" d="M 317.5,35.5 C 318.833,36.1667 318.833,36.1667 317.5,35.5 Z"/></g>
<g><path style="opacity:0.506" fill="#350500" d="M 310.5,33.5 C 311.931,34.7804 312.598,36.4471 312.5,38.5C 311.264,40.6107 309.764,42.6107 308,44.5C 307.667,42.9532 308.167,41.6199 309.5,40.5C 308.5,40.5 307.5,40.5 306.5,40.5C 308.616,38.6001 309.949,36.2668 310.5,33.5 Z"/></g>
<g><path style="opacity:0.784" fill="#3a0700" d="M 312.5,44.5 C 314.255,42.0117 316.255,39.6784 318.5,37.5C 318.833,37.8333 319.167,38.1667 319.5,38.5C 317.128,41.7044 314.961,45.0378 313,48.5C 312.51,47.2068 312.343,45.8734 312.5,44.5 Z"/></g>
<g><path style="opacity:0.918" fill="#360800" d="M 292.5,50.5 C 291.662,50.8417 291.328,51.5084 291.5,52.5C 291.167,52.5 290.833,52.5 290.5,52.5C 290.631,51.7611 290.464,51.0944 290,50.5C 289.292,51.3805 288.458,52.0472 287.5,52.5C 288.734,49.5927 290.734,47.2593 293.5,45.5C 293.833,45.8333 294.167,46.1667 294.5,46.5C 293.37,47.6223 292.703,48.9557 292.5,50.5 Z"/></g>
<g><path style="opacity:1" fill="#7a0100" d="M 290.5,52.5 C 289.508,54.4561 288.508,56.4561 287.5,58.5C 284.152,61.8514 281.152,65.5181 278.5,69.5C 276.656,71.5142 275.989,73.6809 276.5,76C 271.714,79.1179 267.214,82.6179 263,86.5C 262.333,87.1667 262.333,87.8333 263,88.5C 263.837,86.9926 265.004,86.4926 266.5,87C 265.167,88.3333 263.833,89.6667 262.5,91C 262.728,91.3988 263.062,91.5654 263.5,91.5C 263.5,92.1667 263.833,92.5 264.5,92.5C 264.586,93.4959 264.252,94.3292 263.5,95C 260.299,97.2673 256.966,98.934 253.5,100C 254.999,99.1618 255.332,98.3285 254.5,97.5C 255.429,96.6851 256.429,95.8518 257.5,95C 255.332,94.7506 253.665,95.5839 252.5,97.5C 250.058,99.2258 247.391,100.726 244.5,102C 243.833,103 243.167,104 242.5,105C 236.938,106.974 231.271,108.474 225.5,109.5C 224.848,108.275 223.681,107.608 222,107.5C 220.615,107.514 219.449,107.848 218.5,108.5C 217.89,109.391 217.557,110.391 217.5,111.5C 213.167,111.5 208.833,111.5 204.5,111.5C 203.15,107.905 200.483,106.572 196.5,107.5C 196.5,108.833 196.5,110.167 196.5,111.5C 193.5,111.5 190.5,111.5 187.5,111.5C 186.766,110.292 186.433,108.959 186.5,107.5C 183.482,107.335 180.482,107.502 177.5,108C 176.944,108.383 176.611,108.883 176.5,109.5C 173.721,109.279 171.054,109.612 168.5,110.5C 168.5,109.5 168.5,108.5 168.5,107.5C 165.5,107.5 162.5,107.5 159.5,107.5C 157.898,105.926 155.898,105.259 153.5,105.5C 153.631,104.761 153.464,104.094 153,103.5C 149.595,100.216 146.095,97.0498 142.5,94C 143.056,93.6174 143.389,93.1174 143.5,92.5C 146.5,92.8333 147.833,91.5 147.5,88.5C 149.032,87.3226 150.532,85.9893 152,84.5C 152.333,84.8333 152.667,85.1667 153,85.5C 153.118,83.4267 154.118,82.0933 156,81.5C 169.34,86.0009 183.006,89.0009 197,90.5C 208.292,89.5299 219.459,87.8632 230.5,85.5C 232.099,85.2322 233.432,85.5655 234.5,86.5C 233.833,86.5 233.5,86.8333 233.5,87.5C 232.5,87.5 231.5,87.5 230.5,87.5C 227.99,87.9267 225.657,88.5933 223.5,89.5C 222.833,89.5 222.167,89.5 221.5,89.5C 218.402,90.2159 215.736,91.7159 213.5,94C 216.458,92.8592 219.458,91.6925 222.5,90.5C 223.833,90.5 225.167,90.5 226.5,90.5C 229.697,90.0272 232.863,89.3606 236,88.5C 237.03,88.1639 237.53,87.4972 237.5,86.5C 238.591,84.2555 240.258,82.4221 242.5,81C 245.599,80.6126 248.266,79.4459 250.5,77.5C 255.434,74.2361 259.767,70.2361 263.5,65.5C 266.056,64.4566 268.223,62.7899 270,60.5C 271,60.8333 272,61.1667 273,61.5C 275.613,59.5985 277.28,57.2652 278,54.5C 277.086,55.6537 276.253,55.487 275.5,54C 276.333,53.1667 277.167,52.3333 278,51.5C 279.414,52.9914 280.914,54.3247 282.5,55.5C 284.411,54.925 286.078,53.925 287.5,52.5C 288.458,52.0472 289.292,51.3805 290,50.5C 290.464,51.0944 290.631,51.7611 290.5,52.5 Z"/></g>
<g><path style="opacity:1" fill="#df0202" d="M 339.5,56.5 C 339.167,56.5 338.833,56.5 338.5,56.5C 337.833,56.5 337.5,56.8333 337.5,57.5C 337.167,57.5 336.833,57.5 336.5,57.5C 331.948,60.6025 327.614,63.9358 323.5,67.5C 326.634,66.0991 329.634,64.4325 332.5,62.5C 333.167,62.5 333.5,62.8333 333.5,63.5C 332.038,64.4577 330.705,65.6244 329.5,67C 331.459,66.9031 333.125,66.0698 334.5,64.5C 335.167,64.5 335.5,64.1667 335.5,63.5C 336.167,63.5 336.5,63.1667 336.5,62.5C 336.833,62.5 337.167,62.5 337.5,62.5C 338.404,63.209 338.737,64.209 338.5,65.5C 327.192,75.4963 314.526,83.4963 300.5,89.5C 299.508,89.6716 298.842,89.3382 298.5,88.5C 299.463,87.6365 299.463,86.9698 298.5,86.5C 294.5,88.8333 290.5,91.1667 286.5,93.5C 285.833,93.1667 285.167,92.8333 284.5,92.5C 281.573,93.801 278.573,94.801 275.5,95.5C 274.833,95.5 274.167,95.5 273.5,95.5C 277.35,92.7392 281.017,89.7392 284.5,86.5C 286.55,84.4525 288.883,82.7859 291.5,81.5C 292.167,81.5 292.5,81.1667 292.5,80.5C 292.5,79.8333 292.833,79.5 293.5,79.5C 293.833,80.8333 294.167,80.8333 294.5,79.5C 294.5,78.8333 294.833,78.5 295.5,78.5C 295.833,79.8333 296.167,79.8333 296.5,78.5C 297.167,78.5 297.5,78.1667 297.5,77.5C 310.28,69.6037 322.947,61.4371 335.5,53C 338.49,52.1531 339.824,53.3198 339.5,56.5 Z M 335.5,63.5 C 335.5,64.1667 335.167,64.5 334.5,64.5C 333.833,64.5 333.5,64.1667 333.5,63.5C 334.396,62.4937 335.062,62.4937 335.5,63.5 Z"/></g>
<g><path style="opacity:1" fill="#3d0600" d="M 282.5,55.5 C 280.914,54.3247 279.414,52.9914 278,51.5C 277.167,52.3333 276.333,53.1667 275.5,54C 276.253,55.487 277.086,55.6537 278,54.5C 277.28,57.2652 275.613,59.5985 273,61.5C 272,61.1667 271,60.8333 270,60.5C 268.223,62.7899 266.056,64.4566 263.5,65.5C 269.662,59.1704 275.662,52.6704 281.5,46C 283.218,45.654 284.885,45.154 286.5,44.5C 287.18,47.7446 286.013,50.4112 283,52.5C 282.517,53.448 282.351,54.448 282.5,55.5 Z"/></g>
<g><path style="opacity:0.192" fill="#220100" d="M 290.5,52.5 C 290.328,53.4916 290.662,54.1583 291.5,54.5C 290.5,56.1667 289.167,57.5 287.5,58.5C 288.508,56.4561 289.508,54.4561 290.5,52.5 Z"/></g>
<g><path style="opacity:0.247" fill="#490501" d="M 336.5,57.5 C 336.5,58.1667 336.833,58.5 337.5,58.5C 335.833,59.8333 334.167,61.1667 332.5,62.5C 329.634,64.4325 326.634,66.0991 323.5,67.5C 327.614,63.9358 331.948,60.6025 336.5,57.5 Z"/></g>
<g><path style="opacity:1" fill="#9e0a07" d="M 338.5,56.5 C 338.833,57.8333 339.167,57.8333 339.5,56.5C 340.072,58.1188 340.405,59.7855 340.5,61.5C 340.006,63.0255 339.339,64.3588 338.5,65.5C 338.737,64.209 338.404,63.209 337.5,62.5C 337.167,61.1667 336.833,61.1667 336.5,62.5C 336.5,63.1667 336.167,63.5 335.5,63.5C 335.062,62.4937 334.396,62.4937 333.5,63.5C 333.5,62.8333 333.167,62.5 332.5,62.5C 334.167,61.1667 335.833,59.8333 337.5,58.5C 337.5,58.1667 337.5,57.8333 337.5,57.5C 337.5,56.8333 337.833,56.5 338.5,56.5 Z"/></g>
<g><path style="opacity:0.725" fill="#6a0d07" d="M 345.5,66.5 C 345.672,65.5084 345.338,64.8417 344.5,64.5C 345.755,62.3592 347.422,61.6926 349.5,62.5C 348.479,64.188 347.145,65.5213 345.5,66.5 Z"/></g>
<g><path style="opacity:0.047" fill="#420a02" d="M 333.5,63.5 C 333.5,64.1667 333.833,64.5 334.5,64.5C 333.125,66.0698 331.459,66.9031 329.5,67C 330.705,65.6244 332.038,64.4577 333.5,63.5 Z"/></g>
<g><path style="opacity:0.286" fill="#3b0903" d="M 307.5,67.5 C 307.158,66.6618 306.492,66.3284 305.5,66.5C 306.281,64.6777 307.448,64.0111 309,64.5C 309.585,65.9976 309.085,66.9976 307.5,67.5 Z"/></g>
<g><path style="opacity:1" fill="#150000" d="M 278.5,63.5 C 279.239,63.369 279.906,63.5357 280.5,64C 274.958,69.2105 269.125,74.0438 263,78.5C 263.546,75.9067 265.046,73.7401 267.5,72C 271.662,69.6545 275.329,66.8211 278.5,63.5 Z"/></g>
<g><path style="opacity:1" fill="#940001" d="M 285.5,72.5 C 284.078,72.7086 282.745,73.2086 281.5,74C 276.533,77.966 271.866,82.2993 267.5,87C 268.094,87.4643 268.761,87.631 269.5,87.5C 267.882,89.316 265.882,90.6493 263.5,91.5C 263.062,91.5654 262.728,91.3988 262.5,91C 263.833,89.6667 265.167,88.3333 266.5,87C 265.004,86.4926 263.837,86.9926 263,88.5C 262.333,87.8333 262.333,87.1667 263,86.5C 267.214,82.6179 271.714,79.1179 276.5,76C 275.989,73.6809 276.656,71.5142 278.5,69.5C 282.27,68.7357 285.603,67.0691 288.5,64.5C 289.167,65.5 289.833,66.5 290.5,67.5C 291.916,65.8608 293.583,65.0275 295.5,65C 291.898,68.2358 288.565,70.7358 285.5,72.5 Z"/></g>
<g><path style="opacity:1" fill="#910806" d="M 344.5,64.5 C 345.338,64.8417 345.672,65.5084 345.5,66.5C 341.799,69.7449 337.799,72.2449 333.5,74C 336.744,70.2499 340.411,67.0832 344.5,64.5 Z"/></g>
<g><path style="opacity:0.525" fill="#4f0601" d="M 323.5,67.5 C 323.027,68.9063 322.027,69.573 320.5,69.5C 320.973,68.0937 321.973,67.427 323.5,67.5 Z"/></g>
<g><path style="opacity:1" fill="#9c0c07" d="M 305.5,66.5 C 306.492,66.3284 307.158,66.6618 307.5,67.5C 305.2,69.984 302.533,71.984 299.5,73.5C 299.158,72.6618 298.492,72.3284 297.5,72.5C 299.86,70.1468 302.527,68.1468 305.5,66.5 Z"/></g>
<g><path style="opacity:0.443" fill="#4c0400" d="M 320.5,69.5 C 320.027,70.9063 319.027,71.573 317.5,71.5C 317.973,70.0937 318.973,69.427 320.5,69.5 Z"/></g>
<g><path style="opacity:1" fill="#4b0500" d="M 263.5,65.5 C 259.767,70.2361 255.434,74.2361 250.5,77.5C 250.167,76.8333 249.833,76.1667 249.5,75.5C 250.625,73.8712 251.959,72.3712 253.5,71C 257.048,69.396 260.382,67.5626 263.5,65.5 Z"/></g>
<g><path style="opacity:1" fill="#ee0000" d="M 297.5,72.5 C 298.492,72.3284 299.158,72.6618 299.5,73.5C 298.833,74.8333 298.167,76.1667 297.5,77.5C 296.833,77.5 296.5,77.8333 296.5,78.5C 296.167,78.5 295.833,78.5 295.5,78.5C 294.833,78.5 294.5,78.8333 294.5,79.5C 294.167,79.5 293.833,79.5 293.5,79.5C 292.833,79.5 292.5,79.8333 292.5,80.5C 291.833,80.5 291.5,80.8333 291.5,81.5C 288.883,82.7859 286.55,84.4525 284.5,86.5C 279.635,88.7629 275.302,91.7629 271.5,95.5C 268.911,96.4194 266.911,98.086 265.5,100.5C 269.151,99.3411 272.485,97.6744 275.5,95.5C 278.573,94.801 281.573,93.801 284.5,92.5C 285.167,92.8333 285.833,93.1667 286.5,93.5C 290.5,91.1667 294.5,88.8333 298.5,86.5C 299.463,86.9698 299.463,87.6365 298.5,88.5C 294.608,90.0621 291.275,92.3954 288.5,95.5C 286.447,95.4021 284.78,96.0687 283.5,97.5C 282.833,97.5 282.5,97.8333 282.5,98.5C 277.383,100.226 272.383,102.226 267.5,104.5C 257.5,108.833 247.5,113.167 237.5,117.5C 233.437,118.632 229.437,119.965 225.5,121.5C 225.5,117.5 225.5,113.5 225.5,109.5C 231.271,108.474 236.938,106.974 242.5,105C 243.167,104 243.833,103 244.5,102C 247.391,100.726 250.058,99.2258 252.5,97.5C 253.167,97.5 253.833,97.5 254.5,97.5C 255.332,98.3285 254.999,99.1618 253.5,100C 256.966,98.934 260.299,97.2673 263.5,95C 264.252,94.3292 264.586,93.4959 264.5,92.5C 269.018,91.903 273.018,90.2363 276.5,87.5C 277.753,84.5761 279.753,82.2427 282.5,80.5C 284.678,79.3434 286.678,78.0101 288.5,76.5C 291.352,74.9091 294.352,73.5758 297.5,72.5 Z"/></g>
<g><path style="opacity:0.42" fill="#500300" d="M 317.5,71.5 C 316.998,73.0847 315.998,73.5847 314.5,73C 315.244,71.9614 316.244,71.4614 317.5,71.5 Z"/></g>
<g><path style="opacity:1" fill="#f00000" d="M 285.5,72.5 C 284.05,74.9228 282.05,76.9228 279.5,78.5C 276.141,81.5285 272.808,84.5285 269.5,87.5C 268.761,87.631 268.094,87.4643 267.5,87C 271.866,82.2993 276.533,77.966 281.5,74C 282.745,73.2086 284.078,72.7086 285.5,72.5 Z"/></g>
<g><path style="opacity:1" fill="#9b0001" d="M 279.5,78.5 C 280.29,79.4013 281.29,80.0679 282.5,80.5C 279.753,82.2427 277.753,84.5761 276.5,87.5C 274.412,87.1348 272.079,87.1348 269.5,87.5C 272.808,84.5285 276.141,81.5285 279.5,78.5 Z"/></g>
<g><path style="opacity:1" fill="#b20002" d="M 342.5,86.5 C 342.167,86.5 341.833,86.5 341.5,86.5C 339.246,87.1237 337.579,88.457 336.5,90.5C 334.973,90.427 333.973,91.0937 333.5,92.5C 331.973,92.427 330.973,93.0937 330.5,94.5C 328.973,94.427 327.973,95.0937 327.5,96.5C 317.036,102.407 307.703,109.073 299.5,116.5C 296.569,118.248 293.736,120.248 291,122.5C 290.586,122.043 290.086,121.709 289.5,121.5C 285.92,123.125 282.254,124.459 278.5,125.5C 277.761,125.631 277.094,125.464 276.5,125C 277.381,124.292 278.047,123.458 278.5,122.5C 280.027,122.573 281.027,121.906 281.5,120.5C 282.167,120.5 282.5,120.167 282.5,119.5C 283.492,119.672 284.158,119.338 284.5,118.5C 285.167,118.5 285.5,118.167 285.5,117.5C 289.143,114.865 292.81,112.199 296.5,109.5C 296.833,110.833 297.167,110.833 297.5,109.5C 297.833,108.5 298.5,107.833 299.5,107.5C 299.833,108.833 300.167,108.833 300.5,107.5C 301.167,107.5 301.5,107.167 301.5,106.5C 314.115,99.1877 326.449,91.3543 338.5,83C 342.049,82.222 343.382,83.3887 342.5,86.5 Z"/></g>
<g><path style="opacity:0.298" fill="#220100" d="M 249.5,75.5 C 249.833,76.1667 250.167,76.8333 250.5,77.5C 248.266,79.4459 245.599,80.6126 242.5,81C 240.258,82.4221 238.591,84.2555 237.5,86.5C 236.833,85.1667 236.167,85.1667 235.5,86.5C 235.167,86.5 234.833,86.5 234.5,86.5C 233.432,85.5655 232.099,85.2322 230.5,85.5C 232.46,83.7903 234.627,83.457 237,84.5C 240.54,80.645 244.707,77.645 249.5,75.5 Z"/></g>
<g><path style="opacity:0.016" fill="#230500" d="M 235.5,86.5 C 236.167,86.5 236.833,86.5 237.5,86.5C 237.53,87.4972 237.03,88.1639 236,88.5C 232.863,89.3606 229.697,90.0272 226.5,90.5C 225.791,89.596 224.791,89.2627 223.5,89.5C 225.657,88.5933 227.99,87.9267 230.5,87.5C 231.5,88.8333 232.5,88.8333 233.5,87.5C 234.492,87.6716 235.158,87.3382 235.5,86.5 Z"/></g>
<g><path style="opacity:0.978" fill="#1a0200" d="M 276.5,87.5 C 273.018,90.2363 269.018,91.903 264.5,92.5C 263.833,92.5 263.5,92.1667 263.5,91.5C 265.882,90.6493 267.882,89.316 269.5,87.5C 272.079,87.1348 274.412,87.1348 276.5,87.5 Z"/></g>
<g><path style="opacity:0.137" fill="#2c0600" d="M 341.5,86.5 C 341.5,86.8333 341.5,87.1667 341.5,87.5C 340.101,88.8897 338.434,89.8897 336.5,90.5C 337.579,88.457 339.246,87.1237 341.5,86.5 Z"/></g>
<g><path style="opacity:1" fill="#390800" d="M 284.5,86.5 C 281.017,89.7392 277.35,92.7392 273.5,95.5C 272.833,95.5 272.167,95.5 271.5,95.5C 275.302,91.7629 279.635,88.7629 284.5,86.5 Z"/></g>
<g><path style="opacity:1" fill="#f40302" d="M 153.5,105.5 C 155.898,105.259 157.898,105.926 159.5,107.5C 148.654,107.172 137.987,107.506 127.5,108.5C 127.5,110.167 127.5,111.833 127.5,113.5C 129.607,114.468 131.941,114.802 134.5,114.5C 134.5,118.833 134.5,123.167 134.5,127.5C 131.833,127.5 129.167,127.5 126.5,127.5C 121.607,124.133 116.44,121.133 111,118.5C 110.217,116.567 110.717,115.067 112.5,114C 115.826,113.828 119.159,113.995 122.5,114.5C 122.833,112.5 123.167,110.5 123.5,108.5C 117.605,106.756 111.938,107.256 106.5,110C 103.231,113.453 102.731,117.286 105,121.5C 109.987,124.733 114.82,128.066 119.5,131.5C 118.378,132.156 117.045,132.489 115.5,132.5C 105.474,131.163 95.4743,129.663 85.5,128C 78.8294,126.589 72.4961,124.422 66.5,121.5C 59.968,116.466 53.3013,111.633 46.5,107C 49.5678,105.984 52.5678,104.817 55.5,103.5C 55.1373,102.817 54.8039,102.15 54.5,101.5C 55.7175,100.839 57.0508,100.172 58.5,99.5C 58.3764,98.8933 58.0431,98.56 57.5,98.5C 57.1667,98.5 56.8333,98.5 56.5,98.5C 56.5,97.8333 56.5,97.1667 56.5,96.5C 60.1191,95.8195 63.7858,95.3195 67.5,95C 61.1749,94.4912 60.5082,92.9912 65.5,90.5C 74.0766,93.3108 82.7432,95.8108 91.5,98C 103.339,99.5947 115.006,101.928 126.5,105C 135.494,105.5 144.494,105.666 153.5,105.5 Z"/></g>
<g><path style="opacity:0.784" fill="#450700" d="M 147.5,88.5 C 145.5,89.1667 144.167,90.5 143.5,92.5C 141.94,92.5191 140.44,92.8524 139,93.5C 137.72,93.3865 136.887,92.7199 136.5,91.5C 139.51,90.1103 142.344,88.4437 145,86.5C 146.301,86.6387 147.134,87.3054 147.5,88.5 Z"/></g>
<g><path style="opacity:0.141" fill="#1b0200" d="M 221.5,89.5 C 221.5,90.1667 221.833,90.5 222.5,90.5C 219.458,91.6925 216.458,92.8592 213.5,94C 215.736,91.7159 218.402,90.2159 221.5,89.5 Z"/></g>
<g><path style="opacity:0.776" fill="#8e0103" d="M 298.5,88.5 C 298.842,89.3382 299.508,89.6716 300.5,89.5C 298.5,91.1667 296.5,92.8333 294.5,94.5C 294.189,95.4778 293.522,96.1445 292.5,96.5C 292.167,95.8333 291.833,95.1667 291.5,94.5C 290.583,95.1272 289.583,95.4606 288.5,95.5C 291.275,92.3954 294.608,90.0621 298.5,88.5 Z"/></g>
<g><path style="opacity:0.286" fill="#350500" d="M 336.5,90.5 C 336.027,91.9063 335.027,92.573 333.5,92.5C 333.973,91.0937 334.973,90.427 336.5,90.5 Z"/></g>
<g><path style="opacity:0.867" fill="#8e0805" d="M 298.5,96.5 C 298.953,95.5416 299.619,94.7083 300.5,94C 299.906,93.5357 299.239,93.369 298.5,93.5C 302.133,90.8497 306.133,89.0164 310.5,88C 306.558,91.1179 302.558,93.9512 298.5,96.5 Z"/></g>
<g><path style="opacity:0.997" fill="#a40403" d="M 342.5,86.5 C 343.828,87.9097 343.495,89.0764 341.5,90C 342.167,90.3333 342.833,90.6667 343.5,91C 343.094,94.4153 341.428,97.082 338.5,99C 325.083,108.71 310.75,116.877 295.5,123.5C 297.594,120.578 300.261,118.078 303.5,116C 302.181,115.805 300.847,115.972 299.5,116.5C 307.703,109.073 317.036,102.407 327.5,96.5C 329.027,96.573 330.027,95.9063 330.5,94.5C 332.027,94.573 333.027,93.9063 333.5,92.5C 335.027,92.573 336.027,91.9063 336.5,90.5C 338.434,89.8897 340.101,88.8897 341.5,87.5C 342.167,87.5 342.5,87.1667 342.5,86.5 Z M 337.5,93.5 C 337.783,92.7109 338.283,92.0442 339,91.5C 339.528,92.816 339.028,93.4827 337.5,93.5 Z"/></g>
<g><path style="opacity:0.282" fill="#330500" d="M 333.5,92.5 C 333.027,93.9063 332.027,94.573 330.5,94.5C 330.973,93.0937 331.973,92.427 333.5,92.5 Z"/></g>
<g><path style="opacity:1" fill="#dd0301" d="M 298.5,93.5 C 299.239,93.369 299.906,93.5357 300.5,94C 299.619,94.7083 298.953,95.5416 298.5,96.5C 296.206,98.653 293.54,100.32 290.5,101.5C 279.788,106.019 269.121,110.852 258.5,116C 254.847,116.773 251.347,117.94 248,119.5C 247.601,119.272 247.435,118.938 247.5,118.5C 249.493,116.837 251.826,115.67 254.5,115C 255.598,114.23 255.598,113.397 254.5,112.5C 258.565,110.467 262.565,108.467 266.5,106.5C 267.167,106.5 267.5,106.167 267.5,105.5C 273.039,104.109 278.039,101.776 282.5,98.5C 283.167,98.5 283.833,98.5 284.5,98.5C 285.872,97.4884 287.205,96.4884 288.5,95.5C 289.583,95.4606 290.583,95.1272 291.5,94.5C 291.833,95.1667 292.167,95.8333 292.5,96.5C 293.522,96.1445 294.189,95.4778 294.5,94.5C 295.833,94.1667 297.167,93.8333 298.5,93.5 Z"/></g>
<g><path style="opacity:0.42" fill="#3c0600" d="M 330.5,94.5 C 330.027,95.9063 329.027,96.573 327.5,96.5C 327.973,95.0937 328.973,94.427 330.5,94.5 Z"/></g>
<g><path style="opacity:1" fill="#200000" d="M 254.5,97.5 C 253.833,97.5 253.167,97.5 252.5,97.5C 253.665,95.5839 255.332,94.7506 257.5,95C 256.429,95.8518 255.429,96.6851 254.5,97.5 Z"/></g>
<g><path style="opacity:1" fill="#860202" d="M 271.5,95.5 C 272.167,95.5 272.833,95.5 273.5,95.5C 274.167,95.5 274.833,95.5 275.5,95.5C 272.485,97.6744 269.151,99.3411 265.5,100.5C 266.911,98.086 268.911,96.4194 271.5,95.5 Z"/></g>
<g><path style="opacity:0.071" fill="#380800" d="M 288.5,95.5 C 287.205,96.4884 285.872,97.4884 284.5,98.5C 284.5,97.8333 284.167,97.5 283.5,97.5C 284.78,96.0687 286.447,95.4021 288.5,95.5 Z"/></g>
<g><path style="opacity:0.959" fill="#740904" d="M 350.5,91.5 C 351.376,91.3691 352.043,91.7025 352.5,92.5C 348.057,96.5618 343.39,100.395 338.5,104C 337.833,104.667 337.167,104.667 336.5,104C 340.74,99.2546 345.407,95.088 350.5,91.5 Z"/></g>
<g><path style="opacity:0.898" fill="#930805" d="M 52.5,98.5 C 52.5,98.8333 52.5,99.1667 52.5,99.5C 52.1667,99.5 51.8333,99.5 51.5,99.5C 49.901,99.7678 48.5676,99.4345 47.5,98.5C 48.452,97.548 49.452,96.548 50.5,95.5C 50.0161,96.7808 50.6827,97.7808 52.5,98.5 Z"/></g>
<g><path style="opacity:0.357" fill="#390400" d="M 47.5,98.5 C 48.5676,99.4345 49.901,99.7678 51.5,99.5C 50.5,100.167 49.5,100.833 48.5,101.5C 47.609,100.89 46.609,100.557 45.5,100.5C 45.5,99.1667 46.1667,98.5 47.5,98.5 Z"/></g>
<g><path style="opacity:0.323" fill="#300700" d="M 56.5,96.5 C 56.5,97.1667 56.5,97.8333 56.5,98.5C 54.5235,99.5069 54.8568,99.5069 57.5,98.5C 58.0431,98.56 58.3764,98.8933 58.5,99.5C 57.0508,100.172 55.7175,100.839 54.5,101.5C 53.8333,100.833 53.1667,100.167 52.5,99.5C 52.5,99.1667 52.5,98.8333 52.5,98.5C 53.6049,97.3995 54.9382,96.7329 56.5,96.5 Z"/></g>
<g><path style="opacity:1" fill="#ab0d07" d="M 45.5,100.5 C 46.609,100.557 47.609,100.89 48.5,101.5C 49.5981,102.397 49.5981,103.23 48.5,104C 45.0472,105.697 41.5472,106.197 38,105.5C 37.8367,103.269 39.0034,101.935 41.5,101.5C 43.2193,102.789 44.5526,102.455 45.5,100.5 Z"/></g>
<g><path style="opacity:1" fill="#c30201" d="M 290.5,101.5 C 288.613,103.511 288.446,105.511 290,107.5C 293.141,105.68 296.308,104.014 299.5,102.5C 299.554,104.14 299.554,105.806 299.5,107.5C 298.5,107.833 297.833,108.5 297.5,109.5C 297.167,109.5 296.833,109.5 296.5,109.5C 292.81,112.199 289.143,114.865 285.5,117.5C 284.833,117.5 284.5,117.833 284.5,118.5C 283.508,118.328 282.842,118.662 282.5,119.5C 282.167,119.5 281.833,119.5 281.5,119.5C 280.167,120.167 279.167,121.167 278.5,122.5C 275.109,123.529 272.443,125.529 270.5,128.5C 270.833,129.833 271.167,129.833 271.5,128.5C 274.157,128.065 276.491,127.065 278.5,125.5C 282.254,124.459 285.92,123.125 289.5,121.5C 290.086,121.709 290.586,122.043 291,122.5C 293.736,120.248 296.569,118.248 299.5,116.5C 300.847,115.972 302.181,115.805 303.5,116C 300.261,118.078 297.594,120.578 295.5,123.5C 281.506,129.269 267.839,135.602 254.5,142.5C 251.911,142.461 249.911,143.461 248.5,145.5C 247.209,145.263 246.209,145.596 245.5,146.5C 244.833,146.5 244.167,146.5 243.5,146.5C 238.607,147.796 233.94,149.462 229.5,151.5C 228.508,151.328 227.842,151.662 227.5,152.5C 222.466,153.398 217.799,155.065 213.5,157.5C 212.833,157.5 212.167,157.5 211.5,157.5C 209.255,157.541 208.588,158.375 209.5,160C 207.073,160.902 204.74,161.736 202.5,162.5C 164.34,166.468 126.34,164.968 88.5,158C 81.972,156.602 75.6387,154.602 69.5,152C 64.7324,147.231 59.399,143.231 53.5,140C 52.3128,138.981 51.3128,137.814 50.5,136.5C 53.1667,135.5 55.8333,134.5 58.5,133.5C 58.1373,132.817 57.8039,132.15 57.5,131.5C 59.1585,130.819 60.8251,129.985 62.5,129C 61.9056,128.536 61.2389,128.369 60.5,128.5C 59.2264,127.811 59.2264,126.977 60.5,126C 63.8333,125.667 67.1667,125.333 70.5,125C 68.5,124.333 66.5,123.667 64.5,123C 65.4158,122.722 66.0825,122.222 66.5,121.5C 72.4961,124.422 78.8294,126.589 85.5,128C 95.4743,129.663 105.474,131.163 115.5,132.5C 117.045,132.489 118.378,132.156 119.5,131.5C 121.861,136.476 120.194,139.143 114.5,139.5C 112.259,138.929 110.592,137.596 109.5,135.5C 107.257,134.526 104.924,134.192 102.5,134.5C 103.308,141.8 107.474,145.467 115,145.5C 121.991,145.323 126.491,141.989 128.5,135.5C 130.5,135.5 132.5,135.5 134.5,135.5C 134.19,138.713 134.523,141.713 135.5,144.5C 137.167,144.5 138.833,144.5 140.5,144.5C 141.477,141.713 141.81,138.713 141.5,135.5C 144.167,135.5 146.833,135.5 149.5,135.5C 149.19,138.713 149.523,141.713 150.5,144.5C 156.167,144.5 161.833,144.5 167.5,144.5C 168.167,144.5 168.833,144.5 169.5,144.5C 171.833,144.5 174.167,144.5 176.5,144.5C 176.216,142.585 176.549,140.919 177.5,139.5C 180.127,138.908 182.794,138.575 185.5,138.5C 187.28,139.99 187.946,141.99 187.5,144.5C 190.247,144.813 192.914,144.48 195.5,143.5C 194.691,141.929 194.357,140.262 194.5,138.5C 195.167,138.5 195.833,138.5 196.5,138.5C 196.5,140.5 196.5,142.5 196.5,144.5C 198.5,144.5 200.5,144.5 202.5,144.5C 203.245,141.61 203.912,138.61 204.5,135.5C 206.383,137.763 207.716,140.43 208.5,143.5C 210.045,144.452 211.712,144.785 213.5,144.5C 215.09,139.559 216.59,134.559 218,129.5C 218.499,134.489 218.666,139.489 218.5,144.5C 220.5,144.5 222.5,144.5 224.5,144.5C 225.49,138.69 225.823,132.69 225.5,126.5C 231.95,125.596 237.95,123.596 243.5,120.5C 244.514,119.326 245.847,118.66 247.5,118.5C 247.435,118.938 247.601,119.272 248,119.5C 251.347,117.94 254.847,116.773 258.5,116C 269.121,110.852 279.788,106.019 290.5,101.5 Z M 263.5,123.5 C 264.833,122.5 266.167,121.5 267.5,120.5C 267.833,120.5 268.167,120.5 268.5,120.5C 270.23,119.974 271.564,118.974 272.5,117.5C 274.591,117.682 276.591,117.348 278.5,116.5C 279.696,116.846 279.696,117.346 278.5,118C 273.686,120.41 268.686,122.244 263.5,123.5 Z M 263.5,123.5 C 259.787,125.685 255.787,127.352 251.5,128.5C 253.349,127.407 255.016,126.074 256.5,124.5C 256.833,124.5 257.167,124.5 257.5,124.5C 259.5,124.167 261.5,123.833 263.5,123.5 Z M 181.5,153.5 C 182.492,153.328 183.158,153.662 183.5,154.5C 180.167,154.833 176.833,155.167 173.5,155.5C 175.905,154.232 178.572,153.565 181.5,153.5 Z M 165.5,155.5 C 168.167,155.5 170.833,155.5 173.5,155.5C 170.727,156.657 167.727,157.324 164.5,157.5C 163.761,157.631 163.094,157.464 162.5,157C 163.737,156.768 164.737,156.268 165.5,155.5 Z"/></g>
<g><path style="opacity:1" fill="#7d0a05" d="M 301.5,106.5 C 300.833,106.5 300.5,106.833 300.5,107.5C 300.167,107.5 299.833,107.5 299.5,107.5C 299.554,105.806 299.554,104.14 299.5,102.5C 303.101,100.023 306.767,97.5228 310.5,95C 311.332,94.3123 311.998,94.479 312.5,95.5C 308.458,98.8754 304.791,102.542 301.5,106.5 Z"/></g>
<g><path style="opacity:1" fill="#df0000" d="M 232.5,98.5 C 233.239,98.369 233.906,98.5357 234.5,99C 227.186,102.481 219.519,105.148 211.5,107C 209.5,107.667 207.5,107.667 205.5,107C 214.871,104.915 223.871,102.082 232.5,98.5 Z"/></g>
<g><path style="opacity:1" fill="#420501" d="M 265.5,100.5 C 263.215,102.539 260.549,103.706 257.5,104C 259.867,102.155 262.533,100.989 265.5,100.5 Z"/></g>
<g><path style="opacity:1" fill="#fef0f0" d="M 126.5,127.5 C 126.5,127.833 126.5,128.167 126.5,128.5C 127.024,130.306 127.691,131.972 128.5,133.5C 128.5,134.167 128.5,134.833 128.5,135.5C 126.491,141.989 121.991,145.323 115,145.5C 107.474,145.467 103.308,141.8 102.5,134.5C 104.924,134.192 107.257,134.526 109.5,135.5C 110.592,137.596 112.259,138.929 114.5,139.5C 120.194,139.143 121.861,136.476 119.5,131.5C 114.82,128.066 109.987,124.733 105,121.5C 102.731,117.286 103.231,113.453 106.5,110C 111.938,107.256 117.605,106.756 123.5,108.5C 123.167,110.5 122.833,112.5 122.5,114.5C 119.159,113.995 115.826,113.828 112.5,114C 110.717,115.067 110.217,116.567 111,118.5C 116.44,121.133 121.607,124.133 126.5,127.5 Z"/></g>
<g><path style="opacity:1" fill="#560801" d="M 250.5,108.5 C 251.527,107.152 252.86,106.652 254.5,107C 253.437,108.188 252.103,108.688 250.5,108.5 Z"/></g>
<g><path style="opacity:1" fill="#1e0400" d="M 267.5,104.5 C 267.5,104.833 267.5,105.167 267.5,105.5C 266.833,105.5 266.5,105.833 266.5,106.5C 262.565,108.467 258.565,110.467 254.5,112.5C 249.755,114.545 245.089,116.545 240.5,118.5C 239.5,118.5 238.5,118.5 237.5,118.5C 237.5,118.167 237.5,117.833 237.5,117.5C 247.5,113.167 257.5,108.833 267.5,104.5 Z"/></g>
<g><path style="opacity:1" fill="#fefdfd" d="M 127.5,108.5 C 134.5,108.5 141.5,108.5 148.5,108.5C 148.5,110.167 148.5,111.833 148.5,113.5C 145.833,113.5 143.167,113.5 140.5,113.5C 140.5,123.833 140.5,134.167 140.5,144.5C 138.833,144.5 137.167,144.5 135.5,144.5C 135.5,134.167 135.5,123.833 135.5,113.5C 132.833,113.5 130.167,113.5 127.5,113.5C 127.5,111.833 127.5,110.167 127.5,108.5 Z"/></g>
<g><path style="opacity:1" fill="#e58281" d="M 127.5,108.5 C 137.987,107.506 148.654,107.172 159.5,107.5C 162.5,107.5 165.5,107.5 168.5,107.5C 168.5,108.5 168.5,109.5 168.5,110.5C 168.5,111.833 168.5,113.167 168.5,114.5C 164.5,114.5 160.5,114.5 156.5,114.5C 159.962,113.518 163.629,113.185 167.5,113.5C 167.5,111.833 167.5,110.167 167.5,108.5C 161.833,108.5 156.167,108.5 150.5,108.5C 150.5,120.5 150.5,132.5 150.5,144.5C 149.523,141.713 149.19,138.713 149.5,135.5C 146.833,135.5 144.167,135.5 141.5,135.5C 141.5,135.167 141.5,134.833 141.5,134.5C 144.167,134.5 146.833,134.5 149.5,134.5C 149.5,132.833 149.5,131.167 149.5,129.5C 149.5,128.833 149.5,128.167 149.5,127.5C 149.818,122.968 149.485,118.634 148.5,114.5C 148.5,114.167 148.5,113.833 148.5,113.5C 148.5,111.833 148.5,110.167 148.5,108.5C 141.5,108.5 134.5,108.5 127.5,108.5 Z"/></g>
<g><path style="opacity:1" fill="#fefbfb" d="M 156.5,114.5 C 156.5,117.167 156.5,119.833 156.5,122.5C 158.844,122.94 160.844,123.94 162.5,125.5C 162.5,126.167 162.5,126.833 162.5,127.5C 160.735,128.461 158.735,128.795 156.5,128.5C 156.5,130.5 156.5,132.5 156.5,134.5C 156.5,135.833 156.5,137.167 156.5,138.5C 159.962,139.482 163.629,139.815 167.5,139.5C 167.5,141.167 167.5,142.833 167.5,144.5C 161.833,144.5 156.167,144.5 150.5,144.5C 150.5,132.5 150.5,120.5 150.5,108.5C 156.167,108.5 161.833,108.5 167.5,108.5C 167.5,110.167 167.5,111.833 167.5,113.5C 163.629,113.185 159.962,113.518 156.5,114.5 Z"/></g>
<g><path style="opacity:1" fill="#fbeeee" d="M 187.5,111.5 C 188.167,114.833 188.833,118.167 189.5,121.5C 189.263,122.791 189.596,123.791 190.5,124.5C 191.368,128.314 192.368,131.981 193.5,135.5C 193.263,136.791 193.596,137.791 194.5,138.5C 194.357,140.262 194.691,141.929 195.5,143.5C 192.914,144.48 190.247,144.813 187.5,144.5C 187.946,141.99 187.28,139.99 185.5,138.5C 185.5,137.5 185.5,136.5 185.5,135.5C 182.833,135.5 180.167,135.5 177.5,135.5C 177.5,136.833 177.5,138.167 177.5,139.5C 176.549,140.919 176.216,142.585 176.5,144.5C 174.167,144.5 171.833,144.5 169.5,144.5C 169.448,142.097 169.781,139.764 170.5,137.5C 170.5,136.5 170.5,135.5 170.5,134.5C 171.531,132.039 172.198,129.373 172.5,126.5C 172.833,125.833 173.167,125.167 173.5,124.5C 174.405,119.512 175.405,114.512 176.5,109.5C 176.611,108.883 176.944,108.383 177.5,108C 180.482,107.502 183.482,107.335 186.5,107.5C 186.433,108.959 186.766,110.292 187.5,111.5 Z"/></g>
<g><path style="opacity:1" fill="#fdf4f4" d="M 204.5,111.5 C 205.971,116.579 207.637,121.579 209.5,126.5C 210.792,131.561 211.792,131.228 212.5,125.5C 214.142,120.914 215.808,116.248 217.5,111.5C 217.557,110.391 217.89,109.391 218.5,108.5C 220.5,108.5 222.5,108.5 224.5,108.5C 224.5,120.5 224.5,132.5 224.5,144.5C 222.5,144.5 220.5,144.5 218.5,144.5C 218.666,139.489 218.499,134.489 218,129.5C 216.59,134.559 215.09,139.559 213.5,144.5C 211.712,144.785 210.045,144.452 208.5,143.5C 207.716,140.43 206.383,137.763 204.5,135.5C 204.5,134.5 204.5,133.5 204.5,132.5C 203.491,125.605 202.824,125.272 202.5,131.5C 202.5,135.833 202.5,140.167 202.5,144.5C 200.5,144.5 198.5,144.5 196.5,144.5C 196.5,142.5 196.5,140.5 196.5,138.5C 196.5,137.5 196.5,136.5 196.5,135.5C 196.5,127.5 196.5,119.5 196.5,111.5C 196.5,110.167 196.5,108.833 196.5,107.5C 200.483,106.572 203.15,107.905 204.5,111.5 Z"/></g>
<g><path style="opacity:1" fill="#740002" d="M 67.5,109.5 C 71.1333,108.713 74.7999,109.213 78.5,111C 74.8036,110.997 71.1369,110.497 67.5,109.5 Z"/></g>
<g><path style="opacity:1" fill="#390700" d="M 250.5,108.5 C 248.821,110.175 246.821,111.008 244.5,111C 246.158,109.337 248.158,108.504 250.5,108.5 Z"/></g>
<g><path style="opacity:1" fill="#f90703" d="M 176.5,109.5 C 175.405,114.512 174.405,119.512 173.5,124.5C 170.214,125.207 166.881,125.54 163.5,125.5C 163.5,124.5 163.5,123.5 163.5,122.5C 161.167,122.5 158.833,122.5 156.5,122.5C 156.5,119.833 156.5,117.167 156.5,114.5C 160.5,114.5 164.5,114.5 168.5,114.5C 168.5,113.167 168.5,111.833 168.5,110.5C 171.054,109.612 173.721,109.279 176.5,109.5 Z"/></g>
<g><path style="opacity:1" fill="#ff120a" d="M 204.5,111.5 C 208.833,111.5 213.167,111.5 217.5,111.5C 215.808,116.248 214.142,120.914 212.5,125.5C 211.609,126.11 210.609,126.443 209.5,126.5C 207.637,121.579 205.971,116.579 204.5,111.5 Z"/></g>
<g><path style="opacity:1" fill="#f30201" d="M 187.5,111.5 C 190.5,111.5 193.5,111.5 196.5,111.5C 196.5,119.5 196.5,127.5 196.5,135.5C 195.5,135.5 194.5,135.5 193.5,135.5C 192.368,131.981 191.368,128.314 190.5,124.5C 190.414,123.504 190.748,122.671 191.5,122C 190.906,121.536 190.239,121.369 189.5,121.5C 188.833,118.167 188.167,114.833 187.5,111.5 Z"/></g>
<g><path style="opacity:1" fill="#f8b8b8" d="M 148.5,113.5 C 148.5,113.833 148.5,114.167 148.5,114.5C 146.167,114.5 143.833,114.5 141.5,114.5C 141.5,119.167 141.5,123.833 141.5,128.5C 141.5,128.833 141.5,129.167 141.5,129.5C 141.5,131.167 141.5,132.833 141.5,134.5C 141.5,134.833 141.5,135.167 141.5,135.5C 141.81,138.713 141.477,141.713 140.5,144.5C 140.5,134.167 140.5,123.833 140.5,113.5C 143.167,113.5 145.833,113.5 148.5,113.5 Z"/></g>
<g><path style="opacity:1" fill="#fe0000" d="M 148.5,114.5 C 149.485,118.634 149.818,122.968 149.5,127.5C 146.833,127.833 144.167,128.167 141.5,128.5C 141.5,123.833 141.5,119.167 141.5,114.5C 143.833,114.5 146.167,114.5 148.5,114.5 Z"/></g>
<g><path style="opacity:1" fill="#930101" d="M 254.5,112.5 C 255.598,113.397 255.598,114.23 254.5,115C 251.826,115.67 249.493,116.837 247.5,118.5C 245.847,118.66 244.514,119.326 243.5,120.5C 242.222,120.218 241.222,119.551 240.5,118.5C 245.089,116.545 249.755,114.545 254.5,112.5 Z"/></g>
<g><path style="opacity:0.698" fill="#640201" d="M 272.5,117.5 C 271.564,118.974 270.23,119.974 268.5,120.5C 268.694,118.088 270.027,117.088 272.5,117.5 Z"/></g>
<g><path style="opacity:1" fill="#630502" d="M 237.5,117.5 C 237.5,117.833 237.5,118.167 237.5,118.5C 232.491,119.667 228.491,121.667 225.5,124.5C 225.5,123.5 225.5,122.5 225.5,121.5C 229.437,119.965 233.437,118.632 237.5,117.5 Z"/></g>
<g><path style="opacity:0.388" fill="#2c0700" d="M 281.5,119.5 C 281.5,119.833 281.5,120.167 281.5,120.5C 281.027,121.906 280.027,122.573 278.5,122.5C 279.167,121.167 280.167,120.167 281.5,119.5 Z"/></g>
<g><path style="opacity:1" fill="#ff9d9d" d="M 156.5,122.5 C 158.833,122.5 161.167,122.5 163.5,122.5C 163.5,123.5 163.5,124.5 163.5,125.5C 163.167,125.5 162.833,125.5 162.5,125.5C 160.844,123.94 158.844,122.94 156.5,122.5 Z"/></g>
<g><path style="opacity:1" fill="#9d3530" d="M 182.5,124.5 C 181.833,124.5 181.167,124.5 180.5,124.5C 181.614,119.371 182.281,119.371 182.5,124.5 Z"/></g>
<g><path style="opacity:1" fill="#eb0000" d="M 237.5,118.5 C 238.5,118.5 239.5,118.5 240.5,118.5C 241.222,119.551 242.222,120.218 243.5,120.5C 237.95,123.596 231.95,125.596 225.5,126.5C 225.5,125.833 225.5,125.167 225.5,124.5C 228.491,121.667 232.491,119.667 237.5,118.5 Z"/></g>
<g><path style="opacity:0.329" fill="#4c0201" d="M 267.5,120.5 C 266.167,121.5 264.833,122.5 263.5,123.5C 261.5,123.833 259.5,124.167 257.5,124.5C 260.34,122.085 263.673,120.752 267.5,120.5 Z"/></g>
<g><path style="opacity:1" fill="#b45353" d="M 189.5,121.5 C 190.239,121.369 190.906,121.536 191.5,122C 190.748,122.671 190.414,123.504 190.5,124.5C 189.596,123.791 189.263,122.791 189.5,121.5 Z"/></g>
<g><path style="opacity:1" fill="#140908" d="M 173.5,124.5 C 173.167,125.167 172.833,125.833 172.5,126.5C 169.167,126.833 165.833,127.167 162.5,127.5C 162.5,126.833 162.5,126.167 162.5,125.5C 162.833,125.5 163.167,125.5 163.5,125.5C 166.881,125.54 170.214,125.207 173.5,124.5 Z"/></g>
<g><path style="opacity:0.993" fill="#980504" d="M 268.5,142.5 C 267.761,142.631 267.094,142.464 266.5,142C 267.833,141.333 269.167,140.667 270.5,140C 266.574,140.528 262.741,141.695 259,143.5C 258.235,143.43 257.735,143.097 257.5,142.5C 275.655,133.925 293.988,125.592 312.5,117.5C 313.696,117.846 313.696,118.346 312.5,119C 298.817,128.675 284.15,136.508 268.5,142.5 Z"/></g>
<g><path style="opacity:1" fill="#fa1f15" d="M 180.5,124.5 C 181.167,124.5 181.833,124.5 182.5,124.5C 183.434,125.568 183.768,126.901 183.5,128.5C 182.167,128.5 180.833,128.5 179.5,128.5C 179.433,127.041 179.766,125.708 180.5,124.5 Z"/></g>
<g><path style="opacity:0.71" fill="#6f0102" d="M 278.5,122.5 C 278.047,123.458 277.381,124.292 276.5,125C 277.094,125.464 277.761,125.631 278.5,125.5C 276.491,127.065 274.157,128.065 271.5,128.5C 271.167,128.5 270.833,128.5 270.5,128.5C 272.443,125.529 275.109,123.529 278.5,122.5 Z"/></g>
<g><path style="opacity:1" fill="#fa0302" d="M 172.5,126.5 C 172.198,129.373 171.531,132.039 170.5,134.5C 165.833,134.5 161.167,134.5 156.5,134.5C 156.5,132.5 156.5,130.5 156.5,128.5C 158.735,128.795 160.735,128.461 162.5,127.5C 165.833,127.167 169.167,126.833 172.5,126.5 Z"/></g>
<g><path style="opacity:1" fill="#462723" d="M 212.5,125.5 C 211.792,131.228 210.792,131.561 209.5,126.5C 210.609,126.443 211.609,126.11 212.5,125.5 Z"/></g>
<g><path style="opacity:0.176" fill="#2b0500" d="M 256.5,124.5 C 255.016,126.074 253.349,127.407 251.5,128.5C 250.5,128.5 249.5,128.5 248.5,128.5C 250.849,126.659 253.515,125.326 256.5,124.5 Z"/></g>
<g><path style="opacity:1" fill="#720000" d="M 149.5,127.5 C 149.5,128.167 149.5,128.833 149.5,129.5C 146.833,129.5 144.167,129.5 141.5,129.5C 141.5,129.167 141.5,128.833 141.5,128.5C 144.167,128.167 146.833,127.833 149.5,127.5 Z"/></g>
<g><path style="opacity:1" fill="#e69b9b" d="M 218.5,108.5 C 219.449,107.848 220.615,107.514 222,107.5C 223.681,107.608 224.848,108.275 225.5,109.5C 225.5,113.5 225.5,117.5 225.5,121.5C 225.5,122.5 225.5,123.5 225.5,124.5C 225.5,125.167 225.5,125.833 225.5,126.5C 225.823,132.69 225.49,138.69 224.5,144.5C 224.5,132.5 224.5,120.5 224.5,108.5C 222.5,108.5 220.5,108.5 218.5,108.5 Z"/></g>
<g><path style="opacity:0.578" fill="#4e0600" d="M 60.5,128.5 C 61.2389,128.369 61.9056,128.536 62.5,129C 60.8251,129.985 59.1585,130.819 57.5,131.5C 56.6618,131.158 56.3284,130.492 56.5,129.5C 58.099,129.768 59.4324,129.434 60.5,128.5 Z"/></g>
<g><path style="opacity:1" fill="#f0100a" d="M 126.5,128.5 C 129.167,128.5 131.833,128.5 134.5,128.5C 134.5,130.167 134.5,131.833 134.5,133.5C 132.5,133.5 130.5,133.5 128.5,133.5C 127.691,131.972 127.024,130.306 126.5,128.5 Z"/></g>
<g><path style="opacity:1" fill="#e90001" d="M 141.5,129.5 C 144.167,129.5 146.833,129.5 149.5,129.5C 149.5,131.167 149.5,132.833 149.5,134.5C 146.833,134.5 144.167,134.5 141.5,134.5C 141.5,132.833 141.5,131.167 141.5,129.5 Z"/></g>
<g><path style="opacity:1" fill="#f78886" d="M 204.5,132.5 C 203.833,132.167 203.167,131.833 202.5,131.5C 202.824,125.272 203.491,125.605 204.5,132.5 Z"/></g>
<g><path style="opacity:0.981" fill="#8d0805" d="M 56.5,129.5 C 54.6099,130.18 52.6099,130.347 50.5,130C 53.2841,132.784 52.6174,134.451 48.5,135C 46.567,135.251 44.7337,135.751 43,136.5C 39.8509,133.885 40.5176,132.218 45,131.5C 45.772,131.645 46.4387,131.978 47,132.5C 49.1625,127.382 52.3292,126.382 56.5,129.5 Z"/></g>
<g><path style="opacity:0.294" fill="#3f0300" d="M 264.5,131.5 C 263.948,133.609 262.614,134.442 260.5,134C 261.693,132.905 263.027,132.072 264.5,131.5 Z"/></g>
<g><path style="opacity:1" fill="#370800" d="M 128.5,133.5 C 130.5,133.5 132.5,133.5 134.5,133.5C 134.5,134.167 134.5,134.833 134.5,135.5C 132.5,135.5 130.5,135.5 128.5,135.5C 128.5,134.833 128.5,134.167 128.5,133.5 Z"/></g>
<g><path style="opacity:1" fill="#8d6665" d="M 202.5,131.5 C 203.167,131.833 203.833,132.167 204.5,132.5C 204.5,133.5 204.5,134.5 204.5,135.5C 203.912,138.61 203.245,141.61 202.5,144.5C 202.5,140.167 202.5,135.833 202.5,131.5 Z"/></g>
<g><path style="opacity:1" fill="#210500" d="M 248.5,128.5 C 248.842,129.338 249.508,129.672 250.5,129.5C 244.533,133.097 238.199,135.597 231.5,137C 237.101,133.865 242.767,131.032 248.5,128.5 Z"/></g>
<g><path style="opacity:1" fill="#bb0001" d="M 156.5,134.5 C 161.167,134.5 165.833,134.5 170.5,134.5C 170.5,135.5 170.5,136.5 170.5,137.5C 165.93,138.441 161.263,138.774 156.5,138.5C 156.5,137.167 156.5,135.833 156.5,134.5 Z"/></g>
<g><path style="opacity:1" fill="#140303" d="M 193.5,135.5 C 194.5,135.5 195.5,135.5 196.5,135.5C 196.5,136.5 196.5,137.5 196.5,138.5C 195.833,138.5 195.167,138.5 194.5,138.5C 193.596,137.791 193.263,136.791 193.5,135.5 Z"/></g>
<g><path style="opacity:1" fill="#ce7070" d="M 127.5,113.5 C 130.167,113.5 132.833,113.5 135.5,113.5C 135.5,123.833 135.5,134.167 135.5,144.5C 134.523,141.713 134.19,138.713 134.5,135.5C 134.5,134.833 134.5,134.167 134.5,133.5C 134.5,131.833 134.5,130.167 134.5,128.5C 131.833,128.5 129.167,128.5 126.5,128.5C 126.5,128.167 126.5,127.833 126.5,127.5C 129.167,127.5 131.833,127.5 134.5,127.5C 134.5,123.167 134.5,118.833 134.5,114.5C 131.941,114.802 129.607,114.468 127.5,113.5 Z"/></g>
<g><path style="opacity:1" fill="#360f05" d="M 185.5,138.5 C 182.794,138.575 180.127,138.908 177.5,139.5C 177.5,138.167 177.5,136.833 177.5,135.5C 180.167,135.5 182.833,135.5 185.5,135.5C 185.5,136.5 185.5,137.5 185.5,138.5 Z"/></g>
<g><path style="opacity:1" fill="#5a0201" d="M 71.5,139.5 C 76.1739,138.986 80.8406,139.819 85.5,142C 80.8305,141.503 76.1638,140.67 71.5,139.5 Z"/></g>
<g><path style="opacity:0.839" fill="#5e0a04" d="M 253.5,137.5 C 252.327,140.754 249.994,141.92 246.5,141C 248.86,139.82 251.193,138.653 253.5,137.5 Z"/></g>
<g><path style="opacity:1" fill="#c16562" d="M 170.5,137.5 C 169.781,139.764 169.448,142.097 169.5,144.5C 168.833,144.5 168.167,144.5 167.5,144.5C 167.5,142.833 167.5,141.167 167.5,139.5C 163.629,139.815 159.962,139.482 156.5,138.5C 161.263,138.774 165.93,138.441 170.5,137.5 Z"/></g>
<g><path style="opacity:0.131" fill="#250000" d="M 245.5,146.5 C 246.5,146.5 247.5,146.5 248.5,146.5C 247.71,147.401 246.71,148.068 245.5,148.5C 245.5,148.167 245.5,147.833 245.5,147.5C 245.5,147.167 245.5,146.833 245.5,146.5 Z"/></g>
<g><path style="opacity:0.596" fill="#590702" d="M 268.5,142.5 C 263.199,145.269 257.532,147.269 251.5,148.5C 252.6,147.442 253.934,146.608 255.5,146C 253.203,145.982 250.869,146.149 248.5,146.5C 248.5,146.167 248.5,145.833 248.5,145.5C 250.819,145.008 252.819,144.008 254.5,142.5C 255.5,142.5 256.5,142.5 257.5,142.5C 257.735,143.097 258.235,143.43 259,143.5C 262.741,141.695 266.574,140.528 270.5,140C 269.167,140.667 267.833,141.333 266.5,142C 267.094,142.464 267.761,142.631 268.5,142.5 Z"/></g>
<g><path style="opacity:0.608" fill="#450600" d="M 243.5,146.5 C 243.5,146.833 243.5,147.167 243.5,147.5C 239.313,149.064 234.98,150.564 230.5,152C 234.095,152.974 233.762,153.807 229.5,154.5C 229.167,153.167 228.833,153.167 228.5,154.5C 228.5,155.167 228.167,155.5 227.5,155.5C 227.082,154.778 226.416,154.278 225.5,154C 226.416,153.722 227.082,153.222 227.5,152.5C 228.492,152.672 229.158,152.338 229.5,151.5C 233.94,149.462 238.607,147.796 243.5,146.5 Z"/></g>
<g><path style="opacity:0.824" fill="#590702" d="M 251.5,148.5 C 248.744,150.204 245.744,151.537 242.5,152.5C 241.791,151.596 240.791,151.263 239.5,151.5C 239.5,151.167 239.5,150.833 239.5,150.5C 240.167,150.167 240.833,149.833 241.5,149.5C 242.5,150.833 243.5,150.833 244.5,149.5C 246.806,149.007 249.139,148.674 251.5,148.5 Z"/></g>
<g><path style="opacity:1" fill="#2b0700" d="M 183.5,154.5 C 183.158,153.662 182.492,153.328 181.5,153.5C 185.664,152.389 189.997,151.889 194.5,152C 191.013,153.622 187.346,154.455 183.5,154.5 Z"/></g>
<g><path style="opacity:0.996" fill="#980504" d="M 243.5,147.5 C 244.167,147.5 244.833,147.5 245.5,147.5C 245.5,147.833 245.5,148.167 245.5,148.5C 244.833,148.5 244.5,148.833 244.5,149.5C 243.5,149.5 242.5,149.5 241.5,149.5C 240.833,149.833 240.167,150.167 239.5,150.5C 238.167,150.833 238.167,151.167 239.5,151.5C 240.791,151.263 241.791,151.596 242.5,152.5C 237.141,155.175 231.474,156.842 225.5,157.5C 224.833,157.5 224.5,157.167 224.5,156.5C 225.391,155.89 226.391,155.557 227.5,155.5C 228.167,155.5 228.5,155.167 228.5,154.5C 228.833,154.5 229.167,154.5 229.5,154.5C 233.762,153.807 234.095,152.974 230.5,152C 234.98,150.564 239.313,149.064 243.5,147.5 Z"/></g>
<g><path style="opacity:0.5" fill="#670101" d="M 136.5,157.5 C 136.833,157.5 137.167,157.5 137.5,157.5C 137.833,158.833 138.167,158.833 138.5,157.5C 142.245,158.331 145.912,158.331 149.5,157.5C 147.257,158.812 144.59,159.478 141.5,159.5C 138.645,159.497 135.978,159.164 133.5,158.5C 134.791,158.737 135.791,158.404 136.5,157.5 Z"/></g>
<g><path style="opacity:0.005" fill="#340700" d="M 165.5,155.5 C 164.737,156.268 163.737,156.768 162.5,157C 163.094,157.464 163.761,157.631 164.5,157.5C 160.03,158.486 155.363,158.819 150.5,158.5C 150.5,158.167 150.5,157.833 150.5,157.5C 155.57,157.315 160.57,156.648 165.5,155.5 Z"/></g>
<g><path style="opacity:0.639" fill="#420601" d="M 224.5,156.5 C 224.5,157.167 224.833,157.5 225.5,157.5C 218.356,160.975 210.689,162.641 202.5,162.5C 204.74,161.736 207.073,160.902 209.5,160C 208.588,158.375 209.255,157.541 211.5,157.5C 212.167,158.833 212.833,158.833 213.5,157.5C 216.94,156.909 220.273,155.909 223.5,154.5C 223.787,155.2 224.12,155.867 224.5,156.5 Z"/></g>
</svg>
